<?xml version="1.0"?>
<svg xmlns="http://www.w3.org/2000/svg" xmlns:xlink="http://www.w3.org/1999/xlink" xmlns:svgjs="http://svgjs.com/svgjs" version="1.1" width="512" height="512" x="0" y="0" viewBox="0 0 6.3499999 6.3500002" style="enable-background:new 0 0 512 512" xml:space="preserve" class=""><g><g xmlns="http://www.w3.org/2000/svg" id="layer1" transform="translate(0 -290.65)"><path id="path9321" d="m.793766 291.17809a.26460982.26460982 0 0 0 -.26354987.26562v1.05885a.26460982.26460982 0 1 0 .52709977 0v-.4222l1.4004311 1.4025a.2652861.2652861 0 0 0 .3751711-.37517l-1.4024984-1.40043h.4221964a.2646485.2646485 0 1 0 0-.52917zm3.7052003 0a.2646485.2646485 0 1 0 0 .52917h.4196127l-1.4019816 1.40043a.26516505.26516505 0 0 0 .374654.37517l1.4004314-1.40043v.42013a.2648417.2648417 0 0 0 .5296834 0v-1.05885a.26460982.26460982 0 0 0 -.2661335-.26562zm-1.8577677 2.90835a.26460982.26460982 0 0 0 -.1834516.0801l-1.4004311 1.4025v-.68575a.26460982.26460982 0 0 0 -.29455589-.26768.26460982.26460982 0 0 0 -.23254388.26768v1.3224a.26460982.26460982 0 0 0 .26354987.26562h1.3224a.2646485.2646485 0 1 0 0-.52917h-.6841961l1.4009482-1.40043a.26460982.26460982 0 0 0 -.1917195-.45527zm1.0609173 0a.26460982.26460982 0 0 0 -.1855185.45527l1.4004312 1.40043h-.6836791a.2646485.2646485 0 0 0 0 .52917h1.3218832a.26460982.26460982 0 0 0 .2661335-.26562v-1.3224a.26460982.26460982 0 0 0 -.2950723-.26768.26460982.26460982 0 0 0 -.2346111.26768v.68368l-1.4004314-1.40043a.26460982.26460982 0 0 0 -.1891355-.0801z" font-variant-ligatures="normal" font-variant-position="normal" font-variant-caps="normal" font-variant-numeric="normal" font-variant-alternates="normal" font-feature-settings="normal" text-indent="0" text-align="start" text-decoration-line="none" text-decoration-style="solid" text-decoration-color="rgb(0,0,0)" text-transform="none" text-orientation="mixed" white-space="normal" shape-padding="0" isolation="auto" mix-blend-mode="normal" solid-color="rgb(0,0,0)" solid-opacity="1" vector-effect="none" fill="#0c6ddb" data-original="#000000" class=""/></g></g></svg>
