<?xml version="1.0"?>
<svg xmlns="http://www.w3.org/2000/svg" xmlns:xlink="http://www.w3.org/1999/xlink" xmlns:svgjs="http://svgjs.com/svgjs" version="1.1" width="512" height="512" x="0" y="0" viewBox="0 0 6.3499999 6.3500002" style="enable-background:new 0 0 512 512" xml:space="preserve" class=""><g><g xmlns="http://www.w3.org/2000/svg" id="layer1" transform="translate(0 -290.65)"><path id="path9313" d="m.79117871 291.17602a.26460982.26460982 0 0 0 -.18551844.45527l1.40043143 1.40044h-.6836791a.264648.264648 0 0 0 0 .52916h1.3223999a.26460982.26460982 0 0 0 .2656168-.26561v-1.32189a.26460982.26460982 0 0 0 -.2692341-.26975.26460982.26460982 0 0 0 -.2599326.26975v.68316l-1.40043139-1.40043a.26460982.26460982 0 0 0 -.1896525-.0801zm4.75991639 0a.26460982.26460982 0 0 0 -.1813843.0801l-1.4004314 1.40043v-.68316a.26460982.26460982 0 0 0 -.2697509-.26975.26460982.26460982 0 0 0 -.2594158.26975v1.32189a.26460982.26460982 0 0 0 .2635499.26561h1.3239502a.264648.264648 0 0 0 0-.52916h-.6831624l1.3983642-1.40044a.26460982.26460982 0 0 0 -.1917195-.45527zm-3.9894206 2.91404a.26460982.26460982 0 0 0 -.0005292.00053.26500138.26500138 0 0 0 .027388.52916h.4175455l-1.40043136 1.40044a.26460982.26460982 0 1 0 .37517097.3731l1.40044379-1.40044v.41961a.2646485.2646485 0 0 0 .5291667 0v-1.05833a.26460982.26460982 0 0 0 -.2656164-.26355h-1.0562664a.26460982.26460982 0 0 0 -.026872-.00053zm2.1166667.00053a.26460982.26460982 0 0 0 -.2382285.26354v1.05833a.2646485.2646485 0 0 0 .5291667 0v-.41961l1.4004314 1.40043a.26460982.26460982 0 1 0 .3731038-.3731l-1.3983642-1.40044h.4175456a.2646485.2646485 0 1 0 0-.52916h-1.0583334a.26460982.26460982 0 0 0 -.025321 0z" font-variant-ligatures="normal" font-variant-position="normal" font-variant-caps="normal" font-variant-numeric="normal" font-variant-alternates="normal" font-feature-settings="normal" text-indent="0" text-align="start" text-decoration-line="none" text-decoration-style="solid" text-decoration-color="rgb(0,0,0)" text-transform="none" text-orientation="mixed" white-space="normal" shape-padding="0" isolation="auto" mix-blend-mode="normal" solid-color="rgb(0,0,0)" solid-opacity="1" vector-effect="none" fill="#0c6ddb" data-original="#000000" class=""/></g></g></svg>
